<svg xmlns="http://www.w3.org/2000/svg" viewBox="0 0 512 512" role="img" aria-labelledby="title"><title id="title">Lifty character pressing a barbell overhead</title><rect width="512" height="512" rx="112" fill="#080b12"/><circle cx="256" cy="268" r="177" fill="#111e33"/><path d="M211 288 165 240 155 132M301 288 347 240 357 132" fill="none" stroke="#b7d6ff" stroke-width="29" stroke-linecap="round" stroke-linejoin="round"/><path d="M207 284 182 259M305 284 330 259" stroke="#438df7" stroke-width="39" stroke-linecap="round"/><path d="M225 350 217 409M287 350 295 409" stroke="#609ef9" stroke-width="34" stroke-linecap="round"/><path d="M216 412h-30M296 412h30" stroke="#dcecff" stroke-width="24" stroke-linecap="round"/><path d="M211 279Q256 262 301 279L302 357Q256 375 210 357Z" fill="#438df7"/><path d="M240 289h32" stroke="#90bdff" stroke-width="8" stroke-linecap="round"/><circle cx="256" cy="222" r="45" fill="#e7c8ad"/><path d="M213 220Q205 169 254 171Q302 170 300 215L282 197Q251 210 224 199Z" fill="#293548"/><circle cx="242" cy="222" r="4.5" fill="#172235"/><circle cx="270" cy="222" r="4.5" fill="#172235"/><path d="M242 241Q256 252 271 240" fill="none" stroke="#71514b" stroke-width="5" stroke-linecap="round"/><path d="M87 121h338" stroke="#dcecff" stroke-width="13" stroke-linecap="round"/><rect x="91" y="82" width="31" height="78" rx="10" fill="#438df7"/><rect x="72" y="94" width="22" height="54" rx="8" fill="#83b5ff"/><rect x="390" y="82" width="31" height="78" rx="10" fill="#438df7"/><rect x="418" y="94" width="22" height="54" rx="8" fill="#83b5ff"/><path d="M155 134v-15M357 134v-15" stroke="#e7c8ad" stroke-width="24" stroke-linecap="round"/></svg>
